<?xml version="1.0" standalone="no"?>
<!DOCTYPE svg PUBLIC "-//W3C//DTD SVG 20010904//EN"
 "http://www.w3.org/TR/2001/REC-SVG-20010904/DTD/svg10.dtd">
<svg version="1.0" xmlns="http://www.w3.org/2000/svg"
 width="200.000000pt" height="200.000000pt" viewBox="0 0 200.000000 200.000000"
 preserveAspectRatio="xMidYMid meet">
<metadata>
Created by potrace 1.11, written by Peter Selinger 2001-2013
</metadata>
<g transform="translate(0.000000,200.000000) scale(0.100000,-0.100000)"
fill="#000000" stroke="none">
<path d="M916 1759 c-91 -22 -193 -94 -259 -182 l-36 -48 -103 -2 c-92 -2
-110 -5 -168 -33 -81 -39 -145 -96 -187 -165 -159 -265 8 -605 314 -638 l58
-6 1 -218 c0 -137 5 -222 11 -228 12 -12 940 -16 951 -4 4 3 7 106 7 228 l0
221 65 16 c237 58 375 285 315 515 -47 179 -196 301 -380 313 -83 5 -86 6
-105 37 -35 56 -127 135 -197 168 -58 27 -81 32 -158 34 -49 1 -107 -2 -129
-8z m231 -63 c82 -29 168 -100 219 -180 28 -45 28 -45 81 -42 210 13 381 -136
396 -344 11 -149 -89 -306 -230 -361 -75 -29 -188 -31 -255 -6 -27 10 -48 20
-48 22 0 2 16 26 35 55 19 29 42 77 51 108 15 52 15 56 -1 68 -24 18 -30 13
-50 -48 -44 -136 -152 -215 -304 -223 -161 -8 -296 81 -337 222 -13 45 -19 53
-40 53 -16 0 -24 -6 -24 -17 0 -35 20 -90 54 -145 l34 -57 -44 -20 c-244 -115
-524 57 -527 324 -2 242 218 414 462 360 26 -5 31 -1 55 40 99 169 303 251
473 191z m-300 -981 c115 -47 207 -52 311 -14 83 30 106 33 138 16 16 -8 57
-21 92 -27 l62 -13 0 -197 0 -197 -429 0 -428 0 -1 186 c-1 102 1 194 4 203 3
10 20 19 42 23 20 3 57 17 82 30 25 13 50 22 55 20 6 -2 38 -15 72 -30z"/>
</g>
</svg>
